<?xml version="1.0" standalone="no"?>
<!DOCTYPE svg PUBLIC "-//W3C//DTD SVG 20010904//EN"
 "http://www.w3.org/TR/2001/REC-SVG-20010904/DTD/svg10.dtd">
<svg version="1.0" xmlns="http://www.w3.org/2000/svg"
 width="411.000000pt" height="411.000000pt" viewBox="0 0 411.000000 411.000000"
 preserveAspectRatio="xMidYMid meet">
<g transform="translate(0.000000,411.000000) scale(0.100000,-0.100000)"
fill="#000000" stroke="none">
<path d="M1370 3797 c-3 -3 -30 -8 -60 -11 -84 -7 -141 -17 -180 -28 -19 -6
-41 -12 -50 -12 -31 -3 -120 -30 -120 -37 0 -4 -19 -12 -43 -17 -24 -6 -59
-22 -78 -35 -19 -12 -49 -29 -67 -36 -18 -8 -30 -16 -28 -19 9 -8 -106 -72
-118 -65 -6 4 -5 -1 3 -10 12 -15 12 -17 -4 -10 -15 5 -17 3 -12 -11 4 -9 3
-15 -1 -12 -11 6 -101 -88 -195 -204 -7 -8 -12 -19 -13 -25 0 -5 -11 -32 -24
-60 -12 -27 -23 -56 -23 -62 0 -7 -4 -13 -9 -13 -5 0 -7 -4 -3 -9 3 -5 1 -12
-5 -16 -5 -3 -10 -16 -10 -29 0 -12 -4 -26 -9 -32 -9 -9 -50 -148 -56 -189 -2
-11 -8 -42 -14 -70 -7 -31 -9 -147 -7 -307 l4 -256 -32 5 c-27 4 -40 -1 -69
-27 -21 -18 -34 -36 -31 -41 3 -5 1 -9 -5 -9 -19 0 -41 -64 -41 -119 0 -31 5
-83 10 -116 19 -114 24 -150 23 -172 -1 -13 3 -21 7 -18 5 3 8 -3 8 -12 -1
-10 17 -56 39 -103 22 -47 46 -100 53 -119 18 -45 76 -113 108 -128 15 -7 38
-12 52 -13 14 0 31 -4 38 -8 6 -5 33 -91 58 -192 45 -178 57 -212 95 -255 10
-11 19 -24 19 -30 1 -5 6 -9 11 -7 5 1 8 -1 7 -5 -3 -9 50 -83 67 -95 5 -4 10
-13 10 -20 1 -7 7 -12 14 -10 7 1 10 -2 6 -8 -5 -9 7 -22 88 -92 11 -10 17
-18 12 -18 -4 0 5 -10 21 -22 16 -13 32 -22 36 -20 5 1 7 -4 5 -10 -1 -7 4
-12 10 -11 7 2 12 0 11 -5 -2 -4 17 -27 41 -52 24 -25 40 -38 36 -30 -4 8 3 3
16 -11 13 -14 40 -34 59 -45 19 -10 46 -29 60 -42 13 -12 28 -22 32 -22 4 0
19 -11 34 -25 15 -14 33 -25 41 -25 8 0 11 -4 8 -10 -3 -6 1 -7 9 -4 9 3 16 2
16 -3 0 -6 57 -15 128 -21 193 -17 370 5 397 49 4 5 11 7 16 3 5 -3 8 0 7 7
-2 7 2 13 9 14 7 0 20 7 30 15 10 9 21 16 26 17 4 2 22 16 40 33 17 16 36 30
40 30 4 0 17 9 29 20 12 10 25 17 30 14 5 -3 8 -2 7 3 -3 19 2 34 10 29 5 -3
20 9 34 27 19 26 22 36 13 47 -19 25 -76 16 -103 -17 -14 -15 -21 -22 -18 -15
4 8 -2 22 -13 32 -18 17 -21 17 -43 2 -33 -23 -68 -24 -87 -1 -9 10 -22 19
-29 19 -16 0 -54 -60 -47 -72 3 -4 0 -8 -6 -8 -6 0 -9 -4 -6 -8 3 -5 -4 -37
-16 -71 -23 -67 -49 -88 -92 -76 -14 4 -17 3 -8 -3 20 -14 -172 -14 -250 -1
-70 13 -72 14 -85 83 -2 10 -10 33 -17 50 -25 55 -26 88 -3 121 24 35 38 46
49 39 13 -8 311 -16 365 -9 57 7 73 27 53 64 -10 19 -20 20 -199 18 -177 -2
-187 -1 -177 16 6 9 14 17 18 17 5 0 8 6 8 14 0 32 217 31 253 -1 10 -9 27
-18 37 -20 18 -3 22 2 19 23 0 4 5 10 12 15 10 6 10 11 0 23 -11 13 -10 17 5
23 32 12 54 46 41 62 -10 12 -9 13 3 7 8 -4 7 -1 -4 8 -17 14 -23 13 -63 -11
-42 -24 -54 -26 -174 -27 -71 -1 -129 1 -129 4 0 3 -9 6 -20 7 -20 2 -64 31
-110 73 l-27 25 80 -2 c43 -1 93 -6 109 -12 17 -6 34 -8 40 -5 5 3 14 1 21 -4
13 -10 14 -10 97 7 30 6 83 11 118 12 35 1 65 6 68 11 11 17 -6 58 -24 58 -14
0 -13 4 7 19 20 16 22 22 14 47 -7 22 -20 32 -49 41 -21 6 -34 12 -29 13 6 0
-4 7 -20 14 -29 12 -31 18 -44 100 -16 108 -12 116 65 112 63 -4 77 5 106 72
17 38 18 49 7 100 -6 31 -13 61 -15 67 -5 11 371 13 383 1 14 -14 -14 -25 -73
-28 -36 -3 -68 -11 -76 -19 -16 -16 -15 -82 1 -87 6 -2 9 -8 5 -13 -6 -10 124
-12 203 -3 61 8 68 19 64 100 -2 39 1 53 14 58 19 7 23 -3 28 -78 6 -82 15
-87 149 -85 118 2 132 8 137 64 2 34 -35 83 -51 67 -8 -8 -97 -5 -107 4 -2 2
-1 10 2 19 8 19 77 21 77 3 0 -9 3 -9 9 1 8 12 15 13 34 4 13 -6 30 -7 37 -3
19 12 40 1 40 -20 0 -28 11 -51 21 -44 5 3 9 0 9 -6 0 -7 7 -10 15 -6 23 8 45
-4 45 -25 0 -15 -7 -19 -34 -19 -50 0 -59 -17 -54 -110 3 -87 11 -100 61 -100
26 0 27 -2 27 -55 0 -54 -1 -55 -28 -55 -37 0 -62 -28 -62 -68 0 -50 21 -62
106 -62 l74 0 0 -30 c0 -34 22 -50 69 -50 24 0 29 -4 26 -20 -2 -11 0 -20 4
-20 5 0 11 -9 14 -21 4 -17 12 -20 38 -17 31 3 34 0 42 -34 6 -24 15 -38 30
-42 46 -12 66 -6 82 24 8 16 15 32 15 35 0 3 0 9 0 14 0 4 11 6 24 4 44 -9 61
15 62 87 1 64 2 65 30 68 33 4 56 20 48 33 -3 5 0 9 6 9 6 0 10 6 9 13 -1 6
-1 17 0 22 1 12 106 14 117 2 5 -4 0 -5 -11 -1 -18 7 -19 6 -5 -11 14 -17 13
-18 -6 -13 -32 8 -52 -8 -60 -47 -6 -33 -13 -39 -42 -36 -37 5 -57 -83 -26
-114 15 -14 30 -16 81 -12 59 4 63 3 63 -17 0 -37 28 -66 64 -66 42 0 56 15
56 61 0 58 -8 69 -47 69 -34 0 -35 1 -29 31 3 17 6 42 6 54 0 20 6 24 48 27
52 5 75 0 67 -13 -3 -5 1 -22 9 -38 16 -29 16 -29 96 -25 45 2 85 6 90 9 6 4
10 26 10 49 0 49 -16 69 -55 69 -21 0 -25 4 -25 27 0 41 -22 53 -95 51 -63 -2
-65 -1 -71 26 -10 40 -23 53 -54 53 -18 0 -27 5 -27 16 0 11 7 14 24 11 13 -2
23 -1 23 2 0 3 20 5 45 3 45 -4 45 -4 65 42 10 25 24 46 30 46 6 0 10 -25 10
-60 0 -76 20 -100 83 -100 39 1 41 2 23 15 -11 8 -32 15 -48 15 l-28 0 0 75 0
75 40 0 40 0 0 -80 c0 -47 4 -80 10 -80 15 0 13 153 -2 168 -7 7 -24 12 -38
12 -22 0 -26 5 -28 31 -4 49 -17 56 -112 51 -86 -4 -104 -12 -95 -43 6 -16
-21 -47 -31 -36 -10 10 -9 117 1 118 5 1 41 0 78 0 43 -2 67 2 63 8 -4 5 -2
12 4 16 5 3 10 17 10 31 0 17 5 24 20 24 15 0 20 -7 20 -29 0 -37 24 -62 53
-57 12 3 30 5 40 5 10 1 15 6 12 11 -3 6 -1 10 4 10 6 0 11 14 11 30 0 27 3
30 30 30 26 0 30 -4 30 -28 0 -53 33 -66 81 -31 16 11 29 18 29 14 0 -3 6 0
14 7 8 7 12 16 10 20 -3 4 11 10 30 14 20 3 34 11 33 18 -1 6 5 10 13 8 8 -2
12 0 8 4 -4 4 0 13 10 20 15 11 14 14 -13 36 -35 28 -64 45 -87 54 -10 3 -18
10 -18 14 0 4 -18 15 -40 25 -47 21 -70 10 -70 -36 0 -33 23 -30 -227 -32 -83
-1 -149 1 -147 5 3 4 -1 6 -8 4 -37 -12 -78 -15 -73 -6 3 6 3 10 -2 10 -4 0
-9 21 -10 46 -2 38 0 45 15 42 10 -2 18 -14 20 -29 5 -45 84 -66 115 -31 13
14 17 36 15 88 -2 81 -13 104 -50 104 -22 0 -28 5 -28 23 -1 46 -21 57 -107
57 -48 0 -84 -5 -91 -12 -7 -7 -12 -39 -12 -75 0 -48 -4 -65 -15 -70 -22 -8
-24 -5 -26 62 -2 77 -12 95 -50 95 -16 0 -31 6 -34 13 -2 6 -6 59 -9 117 -3
58 -5 105 -5 106 -1 0 -7 1 -13 2 -52 7 -62 10 -64 25 -2 13 6 17 37 17 21 0
39 3 40 8 9 70 7 92 -11 102 -10 5 -53 11 -94 12 l-76 2 0 32 c0 39 -14 50
-60 48 -60 -3 -70 -11 -70 -61 0 -46 16 -73 38 -65 6 2 12 -2 12 -9 0 -10 3
-10 12 -1 22 22 35 13 33 -20 -4 -89 -4 -88 -30 -88 -21 0 -25 5 -25 28 0 45
-16 52 -111 52 -91 0 -112 -9 -109 -47 1 -10 2 -75 1 -145 l-1 -128 -74 0
c-74 0 -74 0 -85 -31 -6 -17 -9 -35 -6 -39 7 -12 -25 -16 -74 -10 -39 4 -45 8
-55 40 -10 31 -15 35 -49 38 -51 4 -67 -11 -67 -64 0 -39 3 -44 28 -50 56 -12
62 -15 55 -27 -11 -18 -12 -38 -2 -31 5 3 9 -1 9 -10 0 -17 43 -28 97 -26 58
3 60 2 58 -25 -2 -14 1 -25 6 -25 6 0 7 -5 3 -12 -4 -7 -3 -8 4 -4 7 4 12 1
12 -7 0 -11 11 -12 53 -7 28 4 63 7 77 6 33 -2 50 16 50 53 0 26 4 31 25 31
20 0 25 -5 25 -26 0 -47 18 -66 58 -63 53 4 72 16 72 45 0 14 4 22 10 19 5 -3
7 0 4 8 -4 11 1 15 18 13 22 -1 24 -5 22 -49 -1 -27 -5 -51 -9 -55 -10 -11
-79 -8 -87 3 -5 6 -8 6 -8 -1 0 -8 -56 -10 -192 -8 -106 2 -210 3 -230 4 -27
0 -38 4 -38 15 0 8 -4 15 -10 15 -5 0 -10 -13 -10 -30 l0 -30 305 0 305 0 0
75 0 75 50 0 50 0 0 40 0 40 40 0 40 0 0 45 0 45 43 0 42 0 3 -76 c1 -42 4
-79 6 -83 3 -4 21 -8 40 -9 l36 -3 0 86 0 85 80 0 80 0 0 -46 0 -46 40 4 40 4
0 -78 0 -78 -40 0 -40 0 0 40 0 40 -40 0 -40 0 0 -80 0 -80 261 0 262 0 -6 45
c-2 25 -1 45 2 43 4 -2 49 -27 99 -57 l91 -54 -96 -59 c-53 -32 -96 -58 -97
-58 -1 0 0 20 2 45 l4 45 -56 0 -56 0 0 -40 c0 -36 -3 -40 -24 -40 -13 0 -31
-3 -40 -6 -13 -5 -16 2 -16 40 l0 46 -46 0 -46 0 4 -40 4 -40 -73 0 c-40 0
-76 -1 -80 -2 -4 -2 -6 16 -5 40 l4 42 -86 0 -86 0 0 -45 0 -45 80 0 80 0 0
-80 0 -80 46 0 46 0 -4 40 -4 40 83 0 83 0 0 -41 0 -41 -45 5 -45 4 0 -44 0
-43 -80 0 -80 0 0 -40 0 -40 40 0 40 0 0 -40 0 -40 85 0 85 0 0 -40 0 -40 40
0 40 0 0 -40 0 -40 -80 0 -80 0 0 40 0 40 -80 0 -80 0 0 40 0 40 -85 0 -85 0
0 -40 0 -40 -40 0 -40 0 0 40 0 40 -85 0 -85 0 0 40 0 40 -50 0 -50 0 0 40 0
40 51 0 50 0 -3 120 -3 120 88 0 87 0 0 45 0 45 -185 0 -185 0 0 -45 0 -45 45
0 45 0 0 -77 0 -78 -45 0 -45 0 0 42 0 43 -44 0 -44 0 2 38 c1 37 1 37 -41 40
-35 3 -44 7 -49 26 -3 12 -4 29 -2 37 2 11 -20 15 -124 17 l-128 3 0 -46 0
-45 83 0 84 0 -1 -35 -1 -35 -120 0 -120 0 3 80 4 80 -46 0 -46 0 0 -80 0 -80
-120 0 -120 0 0 35 0 35 80 0 80 0 0 45 0 45 -200 0 -200 0 0 25 0 25 160 0
160 0 0 38 c0 38 0 38 35 34 32 -4 35 -7 35 -38 l0 -34 51 0 51 0 -4 38 c-3
36 -2 37 30 35 20 -1 32 3 32 11 0 8 -9 12 -23 9 -18 -4 -23 0 -25 22 -3 44
-20 65 -52 65 -30 0 -30 0 -30 61 0 93 -6 99 -98 99 -89 0 -102 -8 -102 -61 0
-41 15 -58 52 -61 20 -2 24 -7 23 -29 -2 -35 21 -55 62 -54 27 1 30 -2 22 -17
-6 -10 -14 -16 -20 -13 -5 4 -9 2 -9 -3 0 -6 -9 -8 -19 -5 -15 4 -22 -3 -31
-31 l-12 -36 -134 0 c-75 0 -144 -5 -155 -10 -11 -6 -19 -21 -19 -35 0 -22 -9
-29 -31 -27 -4 1 -15 -8 -24 -18 -16 -17 -16 -25 -6 -63 7 -24 11 -59 9 -78
-3 -30 -6 -34 -33 -34 -34 -1 -56 -10 -104 -42 -41 -28 -102 -28 -131 -1 -11
10 -20 16 -20 12 0 -4 -11 3 -24 15 -15 14 -35 22 -53 21 -65 -5 -65 -4 -60
51 3 28 10 56 16 62 14 14 14 94 1 102 -5 3 -10 16 -10 27 0 22 -51 189 -60
198 -4 4 -8 24 -11 70 -1 8 -7 21 -13 29 -9 12 -7 13 12 9 12 -4 20 -2 16 3
-3 5 13 9 35 9 22 0 43 5 46 11 4 6 0 9 -10 7 -10 -2 -19 2 -21 7 -2 6 14 11
36 12 22 0 40 -3 40 -9 0 -5 -4 -7 -9 -3 -5 3 -12 1 -16 -5 -3 -5 0 -10 8 -10
20 0 23 -52 17 -299 -3 -130 -1 -201 5 -201 7 0 7 -3 0 -8 -5 -4 -11 -14 -13
-22 -2 -8 0 -12 3 -8 4 4 15 -2 24 -12 21 -25 131 -74 131 -58 0 6 3 8 6 5 4
-4 19 2 33 12 14 10 28 19 31 20 3 1 15 4 27 7 13 4 20 10 17 15 -3 5 2 12 10
15 15 6 16 37 11 286 -4 154 -9 286 -12 295 -3 8 -2 18 3 22 5 3 10 15 12 26
2 11 13 36 25 55 51 81 89 170 83 195 -8 33 -29 32 -52 -2 -25 -39 -40 -53
-49 -45 -5 4 -5 2 -1 -5 4 -7 -12 -41 -35 -77 -23 -35 -40 -67 -38 -69 2 -3
-5 -15 -16 -27 -11 -12 -19 -25 -17 -29 1 -3 -15 -7 -36 -9 -36 -3 -90 26 -76
41 3 3 -5 21 -19 39 -23 31 -46 70 -111 190 -22 40 -64 194 -69 251 -1 9 -4
17 -7 17 -3 0 -6 15 -6 34 l-1 34 83 -1 c45 -1 86 -5 90 -9 4 -5 41 -7 83 -6
l76 2 -80 6 c-65 5 -52 7 70 7 83 0 137 -3 120 -7 -29 -7 -29 -8 8 -9 21 0 36
3 33 8 -4 6 18 8 51 6 l58 -4 3 -268 c3 -236 5 -269 20 -283 30 -28 49 -30 70
-7 20 21 21 35 22 291 0 149 2 271 3 273 2 2 105 4 157 3 56 -1 466 17 430 19
-25 1 -38 5 -30 8 8 4 20 12 25 19 6 7 28 15 50 17 l40 4 -41 1 c-35 2 -43 6
-48 26 -3 13 -13 26 -21 30 -8 3 -156 6 -329 7 -320 1 -362 -4 -349 -38 3 -7
0 -13 -5 -13 -6 0 -13 8 -15 18 -4 16 -5 16 -6 0 -1 -16 -13 -18 -102 -18 -64
0 -98 4 -94 10 3 6 -1 10 -10 10 -9 0 -13 -4 -10 -10 4 -6 -5 -10 -19 -10 -14
0 -26 4 -26 9 0 4 -42 6 -92 4 -200 -9 -248 -10 -249 -4 0 3 -3 15 -5 26 -3
11 -7 34 -9 50 -2 17 -13 57 -23 90 -19 57 -70 241 -77 276 -3 15 34 16 418
12 364 -3 422 -6 425 -19 2 -8 -4 -42 -13 -77 -9 -34 -24 -92 -34 -130 -9 -37
-20 -65 -23 -62 -3 3 -8 -1 -12 -10 -4 -11 -2 -14 6 -9 7 5 10 2 6 -7 -4 -11
15 -38 36 -51 8 -6 45 35 40 43 -3 5 -1 9 4 9 5 0 13 21 17 48 6 42 18 96 46
204 11 41 28 42 49 3 7 -13 27 -31 46 -41 18 -10 31 -22 28 -26 -3 -4 1 -8 8
-8 7 0 24 -13 38 -30 14 -16 28 -30 32 -30 4 0 18 -9 30 -19 13 -11 33 -28 45
-39 15 -12 23 -32 24 -60 2 -23 5 -40 7 -37 2 2 15 0 28 -5 16 -6 24 -6 24 1
0 6 5 7 11 4 5 -4 19 1 29 10 14 12 17 23 11 38 -6 14 -3 36 8 62 20 50 91
175 99 175 3 0 2 -3 -1 -7 -4 -3 -2 -12 4 -20 6 -7 8 -13 4 -13 -3 0 3 -16 15
-35 12 -19 19 -39 15 -45 -3 -5 -1 -10 4 -10 6 0 11 -13 11 -29 0 -16 5 -31
10 -33 6 -2 13 -17 16 -33 2 -17 8 -39 11 -50 4 -11 7 -24 8 -30 1 -5 4 -22 8
-37 17 -68 18 -80 5 -73 -7 4 -5 0 6 -9 10 -8 15 -19 12 -25 -4 -6 5 -13 19
-17 38 -10 57 19 50 76 -6 50 -48 210 -73 280 -9 25 -16 47 -17 50 0 9 -39 95
-45 100 -3 3 -10 16 -17 30 -16 36 -69 101 -77 93 -3 -3 -6 0 -6 7 0 18 -101
116 -175 170 -33 24 -62 47 -65 51 -8 11 -236 118 -262 123 -13 3 -25 5 -28 6
-3 2 -8 2 -12 1 -5 0 -8 3 -8 7 0 5 -6 9 -12 10 -48 4 -105 16 -115 24 -7 5
-25 9 -40 8 -15 -1 -30 -1 -33 0 -20 10 -303 25 -310 17z m392 -56 c245 -50
418 -142 594 -316 93 -92 118 -123 151 -190 45 -90 93 -228 123 -355 25 -105
25 -110 0 -110 -15 0 -20 7 -20 28 0 35 -24 137 -56 237 -27 86 -83 215 -93
215 -10 0 -135 -232 -135 -249 0 -9 3 -25 7 -37 6 -18 3 -21 -27 -22 -34 -1
-35 -1 -29 32 5 30 1 37 -59 87 -36 30 -111 94 -167 143 -56 49 -103 87 -104
85 -2 -2 -22 -84 -46 -181 -33 -137 -46 -175 -57 -171 -8 3 -14 8 -14 11 0 5
75 294 86 335 5 16 -21 17 -454 17 l-459 0 49 -182 c26 -101 55 -214 64 -253
l16 -70 334 0 334 -1 0 23 0 23 328 -2 327 -3 3 -27 3 -28 -177 0 c-98 0 -175
-2 -173 -4 2 -3 58 -8 124 -11 66 -4 122 -9 124 -11 10 -9 -463 -3 -474 6 -13
11 -25 -213 -25 -457 l0 -123 -25 0 -25 0 0 183 c0 101 -3 231 -6 288 l-7 104
-328 0 c-288 0 -328 -2 -324 -15 2 -8 20 -82 40 -163 37 -157 46 -178 132
-325 31 -52 58 -106 62 -120 7 -25 10 -26 76 -27 45 0 70 -4 72 -12 4 -10 -15
-13 -70 -13 l-74 0 -7 -182 c-3 -101 -7 -225 -7 -277 l-2 -94 47 -24 47 -24
50 28 50 28 -6 145 c-3 80 -7 219 -8 310 l-2 165 74 120 c86 141 84 139 78 98
-3 -17 -31 -76 -63 -130 -68 -113 -63 -71 -54 -492 l5 -235 -55 -32 c-30 -18
-61 -33 -68 -34 -8 0 -38 15 -68 33 l-55 32 3 284 3 285 -65 -3 c-41 -1 -80
-10 -106 -23 l-41 -20 17 -61 c10 -34 37 -123 60 -197 41 -128 42 -137 30
-180 -28 -102 -28 -107 -9 -140 16 -26 22 -29 39 -20 26 14 54 5 104 -31 59
-43 120 -41 186 7 45 32 53 35 80 25 27 -9 32 -7 46 15 21 31 21 61 -1 118
-13 33 -15 50 -7 58 13 13 30 -17 48 -87 13 -47 12 -53 -9 -95 -24 -46 -46
-55 -88 -36 -9 4 -30 -4 -55 -22 l-40 -29 15 -107 c8 -58 19 -106 24 -106 5 0
36 -12 68 -26 42 -19 59 -32 59 -45 0 -17 -7 -16 -68 15 l-68 34 -43 -19 c-54
-24 -72 -24 -122 1 l-39 21 -120 -62 c-67 -34 -119 -63 -118 -63 2 -1 48 1
103 5 70 4 121 2 171 -7 62 -12 80 -12 135 1 40 9 84 12 117 8 65 -7 71 -30 6
-25 -25 2 -78 -4 -119 -13 -70 -17 -78 -17 -134 -1 -42 12 -90 16 -170 14 -61
-2 -111 -6 -111 -10 0 -5 4 -8 9 -8 5 0 39 -25 77 -56 96 -79 111 -84 262 -84
125 0 129 1 176 30 46 29 47 30 44 9 -2 -14 -18 -30 -40 -41 -33 -18 -36 -22
-23 -35 14 -14 21 -43 10 -43 -3 0 -16 11 -29 24 -21 23 -29 25 -140 27 l-118
1 -44 -53 c-24 -30 -43 -57 -44 -61 0 -5 95 -8 211 -8 164 0 210 -3 206 -12
-3 -10 -57 -13 -223 -14 l-219 -2 -33 -43 c-85 -114 -123 -172 -114 -178 61
-40 122 -86 122 -93 0 -4 5 -8 10 -8 7 0 7 6 1 18 -23 42 -59 187 -51 201 10
19 8 26 50 -118 17 -58 32 -107 35 -109 9 -9 282 -13 348 -5 l69 8 36 112 c23
73 41 113 50 113 17 0 10 -34 -28 -142 l-27 -77 74 51 c67 47 87 68 65 68 -5
0 -16 16 -25 35 -16 33 -16 35 2 35 10 0 24 -12 31 -27 l14 -28 5 40 c4 28 11
41 24 43 15 3 18 -1 13 -17 -3 -12 -9 -30 -12 -41 -7 -27 -3 -26 51 19 39 32
95 59 95 45 0 -15 -210 -180 -298 -234 -44 -27 -64 -32 -159 -40 -76 -7 -144
-7 -228 1 l-120 12 -75 50 c-117 78 -187 134 -293 232 -116 107 -221 230 -211
246 4 7 3 9 -3 6 -6 -4 -23 9 -37 27 -28 37 -33 52 -14 40 7 -4 8 -3 4 5 -4 6
-11 9 -16 6 -18 -11 -59 83 -90 205 -18 69 -40 154 -49 189 l-17 65 -57 13
c-88 19 -102 33 -163 162 -77 159 -80 168 -105 349 -21 152 -22 162 -6 204 10
24 29 59 45 77 28 34 53 41 108 28 l30 -8 -7 58 c-16 122 -22 398 -10 489 24
198 124 486 201 583 208 259 470 399 830 445 85 10 367 -3 462 -23z m-285
-927 c-3 -3 -12 -4 -19 -1 -8 3 -5 6 6 6 11 1 17 -2 13 -5z m1423 -354 l0 -40
-45 0 -45 0 0 40 0 40 45 0 45 0 0 -40z m187 -80 l-1 -40 -43 0 -43 0 0 -40 0
-40 -45 0 -45 0 0 80 0 80 89 0 90 0 -2 -40z m-283 -49 c3 -5 3 -23 0 -40 -6
-28 -10 -31 -45 -31 l-39 0 0 -200 0 -200 -40 0 -40 0 0 40 0 40 -85 0 -85 0
0 40 0 40 86 0 86 0 -2 153 c-1 83 -2 155 -1 160 1 10 159 9 165 -2z m96 -191
l0 -120 -45 0 -45 0 0 120 0 120 45 0 45 0 0 -120z m187 0 l2 -120 -39 0 -40
0 0 120 0 120 38 0 37 0 2 -120z m-113 89 c4 -3 7 -45 9 -93 2 -83 2 -87 -21
-93 -12 -3 -24 -4 -26 -2 -2 2 -6 47 -8 99 -5 94 -4 96 18 95 12 0 25 -3 28
-6z m-184 -107 c0 -103 1 -109 23 -119 12 -5 36 -8 52 -7 17 1 24 0 17 -3 -10
-4 -10 -8 -2 -18 9 -11 6 -13 -15 -9 -15 3 -24 1 -21 -5 3 -5 -2 -7 -12 -4
-22 5 -39 -13 -44 -47 -2 -17 -10 -26 -25 -28 l-23 -3 0 175 0 176 25 0 25 0
0 -108z m-1276 -76 c2 -12 8 -100 11 -196 10 -252 11 -309 5 -307 -3 1 -17 -7
-32 -17 -26 -17 -31 -17 -65 -3 l-38 15 4 238 c2 132 7 244 12 250 5 6 7 18 4
25 -4 11 7 14 44 15 42 1 50 -2 55 -20z m-284 4 c0 -5 -4 -10 -9 -10 -6 0 -13
5 -16 10 -3 6 1 10 9 10 9 0 16 -4 16 -10z m905 -105 c0 -83 7 -94 56 -91 27
2 29 0 29 -36 0 -38 0 -38 -40 -38 l-40 0 0 40 0 40 -40 0 -40 0 0 40 0 40
-40 0 -40 0 0 40 0 40 78 0 77 0 0 -75z m165 35 l0 -40 -40 0 -40 0 0 40 0 40
40 0 40 0 0 -40z m700 0 l0 -40 -45 0 -45 0 0 40 0 40 45 0 45 0 0 -40z m64 3
c3 -7 1 -13 -5 -13 -6 0 -7 -6 -3 -12 6 -10 4 -10 -8 0 -13 10 -17 10 -21 0
-2 -7 -4 -2 -3 12 1 27 31 37 40 13z m-604 -89 l0 -34 -75 0 -75 0 0 34 c0 34
1 35 48 38 87 6 102 0 102 -38z m440 4 l0 -38 -45 0 -45 0 0 38 0 37 45 1 45
0 0 -38z m78 5 c2 -24 -2 -28 -23 -28 -14 0 -25 4 -25 8 0 5 -4 6 -9 3 -5 -4
-7 3 -4 13 3 12 16 22 32 24 14 2 26 5 26 6 1 0 2 -11 3 -26z m-361 3 c17 -16
-26 -31 -81 -28 -71 5 -71 25 0 32 60 7 71 6 81 -4z m13 -92 l0 -34 -80 0 -80
0 0 38 0 37 80 -3 80 -4 0 -34z m180 0 c0 -33 -1 -34 -44 -34 l-43 0 2 38 c1
20 3 37 4 37 0 0 19 -1 41 -3 38 -4 40 -6 40 -38z m-607 -74 c3 -11 -2 -16
-14 -15 -23 2 -33 11 -25 23 9 15 34 10 39 -8z m945 -134 c2 -9 -3 -16 -13
-16 -10 0 -13 5 -9 12 4 7 3 8 -5 4 -6 -4 -9 -12 -5 -17 3 -6 -18 -8 -54 -4
-58 4 -60 4 -72 -24 -7 -18 -10 -66 -9 -123 l4 -93 -35 -3 c-44 -4 -56 -15
-64 -52 -4 -24 -11 -30 -31 -30 -14 0 -26 5 -26 10 -7 50 -20 69 -52 72 -32 3
-32 4 -35 61 -3 55 -2 57 23 57 21 0 25 -5 25 -28 0 -39 17 -52 67 -52 37 0
45 4 53 26 26 69 0 213 -33 186 -13 -10 -48 -1 -49 12 0 19 27 22 169 20 125
-3 149 -5 151 -18z m255 7 c-7 -2 -9 -11 -6 -20 5 -14 1 -15 -27 -10 -18 4
-43 7 -56 7 -41 0 -29 28 14 32 41 3 94 -3 75 -9z m-683 -213 l0 -80 40 0 40
0 0 -40 0 -40 50 0 50 0 0 -40 0 -40 -48 0 -48 0 4 -39 4 -40 -89 -3 -88 -3 1
40 c1 40 2 40 43 43 l41 3 0 81 0 80 -42 -3 -43 -4 2 80 c1 44 2 81 2 83 1 1
19 2 41 2 l40 0 0 -80z m253 -189 c24 -9 26 -20 6 -31 -23 -13 -59 -1 -59 21
0 20 20 24 53 10z m27 -91 l0 -40 -45 0 -45 0 0 40 0 40 45 0 45 0 0 -40z
m-117 14 c3 -3 3 -12 0 -20 -6 -17 -54 -19 -50 -1 4 22 35 35 50 21z m274 -16
c-1 -13 -10 -18 -32 -18 -44 0 -55 -16 -55 -84 0 -71 -10 -93 -35 -79 -9 5
-16 13 -16 16 3 23 0 37 -9 37 -5 0 -10 -16 -10 -35 0 -35 0 -35 -45 -35 l-45
0 0 38 0 38 45 -1 c46 0 60 19 15 22 -14 0 -31 2 -38 2 -8 1 -12 9 -10 18 2
11 15 18 38 20 54 6 60 10 60 46 l0 34 69 -1 c60 -1 69 -3 68 -18z m-1733 -43
c38 -16 41 -16 85 5 l46 21 46 -20 c70 -31 69 -46 -5 -48 -33 -1 -94 -4 -133
-6 -45 -3 -71 -1 -67 5 4 6 -23 9 -70 7 -79 -2 -107 5 -62 17 14 3 26 10 26
15 0 5 11 7 24 3 13 -3 27 -1 30 5 5 7 0 9 -11 5 -15 -5 -15 -4 -3 5 18 12 40
9 94 -14z m1476 -36 l0 -39 -45 0 -45 0 0 40 0 39 45 -1 45 -1 0 -38z m275
-39 l0 -80 -42 0 -43 0 0 80 0 80 43 0 42 0 0 -80z m245 0 l0 -80 -80 0 -80 0
0 34 c0 34 1 35 43 38 42 3 42 3 45 46 3 41 4 42 38 42 l34 0 0 -80z m-340
-122 c0 -38 0 -38 -40 -38 -40 0 -40 0 -40 39 0 39 0 39 40 38 40 -1 40 -1 40
-39z m420 2 c0 -39 -1 -40 -35 -40 -34 0 -35 1 -35 40 0 39 1 40 35 40 34 0
35 -1 35 -40z m-2334 -412 c5 -13 7 -27 6 -32 -2 -4 2 -14 8 -21 9 -10 7 -12
-7 -9 -10 3 -27 12 -37 20 -17 12 -18 17 -6 39 17 31 26 32 36 3z m639 -15 c5
-19 1 -25 -20 -33 -36 -14 -36 -14 -19 18 7 15 14 34 14 42 0 19 16 2 25 -27z"/>
<path d="M1313 3734 c-124 -15 -239 -40 -313 -67 -30 -11 -56 -21 -57 -22 -3
-2 47 -288 51 -292 1 -2 42 33 89 78 53 49 91 78 98 73 7 -4 9 -3 6 3 -6 9
166 178 221 219 9 7 15 14 12 16 -3 3 -51 -1 -107 -8z m32 -34 c4 -6 1 -9 -7
-8 -7 2 -12 -3 -10 -9 1 -7 -2 -13 -7 -13 -6 0 -36 -24 -67 -52 -31 -29 -65
-60 -75 -69 -11 -9 -19 -21 -19 -28 0 -6 -3 -10 -7 -9 -10 3 -43 -24 -100 -79
-49 -49 -41 -58 -67 82 -15 74 -18 130 -7 120 2 -3 10 0 17 6 7 5 25 12 41 15
35 6 123 25 143 31 8 3 32 7 53 8 22 2 41 6 45 9 9 10 60 7 67 -4z"/>
<path d="M1512 3738 c2 -4 95 -93 208 -197 159 -146 207 -185 212 -172 10 24
51 272 45 277 -10 10 -124 46 -190 60 -106 21 -278 42 -275 32z m161 -40 c-2
-5 11 -9 29 -9 61 -2 102 -9 172 -29 78 -22 96 -34 78 -52 -7 -7 -12 -31 -12
-53 0 -23 -6 -62 -13 -86 -8 -24 -12 -50 -9 -57 7 -22 -15 -13 -32 13 -9 14
-23 25 -32 25 -8 0 -12 5 -9 10 3 6 1 10 -5 10 -6 0 -31 20 -56 44 -24 25 -44
43 -44 41 0 -2 -24 19 -53 48 -30 29 -62 58 -73 65 -10 7 -12 10 -4 6 11 -5
10 -1 -3 14 -19 21 -19 21 26 19 25 -1 43 -5 40 -9z"/>
<path d="M1433 3727 c2 -8 -197 -200 -355 -342 l-67 -60 449 3 449 2 -100 91
c-55 51 -96 95 -93 101 4 6 2 8 -4 4 -6 -3 -64 43 -129 102 -103 95 -156 130
-150 99z m64 -44 c10 -10 14 -16 8 -13 -6 3 -3 -2 8 -10 10 -8 53 -49 95 -90
42 -41 80 -75 84 -75 3 0 18 -12 32 -27 14 -16 31 -28 37 -28 7 0 10 -3 6 -6
-3 -3 13 -23 35 -44 l41 -37 -374 -2 c-205 -1 -376 -4 -381 -7 -26 -16 22 37
83 93 8 7 23 22 33 33 10 10 24 17 30 13 6 -3 8 -3 4 1 -9 11 14 36 26 28 5
-3 7 2 3 11 -3 9 -3 16 2 14 4 -1 31 19 59 46 28 26 49 47 46 47 -3 0 13 16
36 35 48 40 60 42 87 18z"/>
<path d="M855 3602 c-49 -27 -147 -93 -193 -130 -23 -18 -24 -21 -22 -210 0
-127 -3 -199 -11 -213 -17 -32 -4 -22 179 135 132 114 162 145 158 161 -3 11
-16 80 -28 153 -12 72 -24 132 -27 132 -3 0 -28 -13 -56 -28z m48 -15 c6 4 8
1 5 -9 -3 -8 -2 -37 4 -64 5 -27 11 -62 13 -79 2 -16 7 -46 10 -66 6 -31 3
-41 -21 -68 -15 -17 -29 -29 -31 -27 -5 4 -55 -37 -105 -87 -21 -20 -38 -34
-38 -31 0 4 -16 -11 -35 -32 -19 -20 -37 -35 -39 -33 -3 3 -6 81 -6 173 l-2
168 33 34 c18 19 40 34 48 34 8 0 11 3 8 7 -4 3 12 14 34 25 23 10 55 30 72
44 18 16 33 22 35 15 2 -6 9 -8 15 -4z"/>
<path d="M2006 3608 c-3 -13 -15 -81 -27 -153 l-22 -129 49 -44 c27 -24 102
-88 167 -143 l117 -100 -4 211 -5 211 -48 37 c-53 41 -201 132 -214 132 -5 0
-11 -10 -13 -22z m68 -34 c9 -8 16 -12 16 -7 0 4 6 1 13 -8 7 -9 30 -25 52
-37 22 -11 56 -36 75 -54 l35 -33 -3 -167 c-2 -105 -7 -168 -13 -168 -6 0 -7
5 -4 10 3 6 2 10 -3 10 -4 0 -17 8 -28 18 -10 9 -36 30 -57 45 -21 16 -46 38
-57 50 -11 11 -20 18 -20 16 0 -3 -23 17 -50 43 -28 27 -49 52 -46 56 3 5 7
26 10 48 2 21 12 73 20 114 9 41 16 76 16 78 0 9 31 -1 44 -14z"/>
<path d="M564 3378 c-95 -101 -93 -79 -18 -209 36 -63 67 -115 68 -116 0 -1 1
84 1 188 0 104 0 189 0 189 -1 0 -23 -24 -51 -52z m24 -136 l2 -97 -30 47
c-16 27 -30 53 -30 59 0 5 -4 8 -9 5 -4 -3 -8 3 -7 13 1 22 59 90 67 79 3 -4
6 -52 7 -106z"/>
<path d="M2311 3241 c2 -98 5 -178 7 -176 6 6 122 216 122 221 0 10 -114 134
-123 134 -5 0 -8 -74 -6 -179z m96 29 c-1 -10 -4 -17 -8 -15 -3 3 -15 -16 -25
-40 -10 -26 -22 -41 -27 -36 -7 7 -11 106 -7 171 0 9 14 0 35 -23 18 -21 33
-47 32 -57z"/>
<path d="M830 3169 c-74 -66 -148 -132 -163 -148 l-29 -28 26 -102 c14 -56 26
-104 26 -107 0 -4 7 -4 15 0 9 3 101 6 206 6 173 1 189 3 185 18 -3 9 -23 94
-46 187 -55 233 -71 295 -79 294 -3 0 -67 -54 -141 -120z m147 64 c-4 -3 1
-35 17 -112 3 -13 10 -38 15 -55 15 -46 42 -197 37 -205 -3 -4 0 -13 6 -21 8
-12 8 -11 3 5 -5 15 -3 17 6 8 24 -24 3 -39 -52 -40 -47 0 -48 0 -11 4 23 2
40 8 38 12 -3 4 -49 2 -103 -4 -90 -11 -218 -13 -228 -4 -2 3 -6 16 -9 29 -3
14 -10 41 -15 60 -20 63 -14 80 42 133 28 27 68 61 87 76 19 14 39 32 43 39 5
7 14 9 20 6 7 -4 9 -4 5 1 -11 12 11 35 26 29 8 -3 16 2 20 11 3 9 11 13 17 9
8 -4 9 -3 5 4 -10 17 2 32 20 25 8 -3 13 -7 11 -10z"/>
<path d="M447 3233 c-3 -10 -21 -56 -41 -103 -46 -112 -83 -251 -101 -380 -8
-58 -17 -115 -19 -128 -3 -13 -1 -20 5 -17 5 4 7 10 5 14 -5 8 22 42 206 264
54 64 98 120 98 123 0 13 -132 244 -140 244 -4 0 -10 -8 -13 -17z m90 -153
c30 -58 39 -82 30 -87 -25 -17 -116 -131 -109 -137 4 -4 0 -6 -8 -4 -8 2 -14
-1 -15 -7 0 -10 -17 -31 -62 -81 -13 -14 -23 -29 -23 -33 0 -5 -6 -11 -14 -14
-14 -6 -16 9 -3 30 4 6 3 15 -3 18 -7 4 -8 11 -2 18 5 7 12 30 16 52 3 22 9
60 12 83 5 31 9 40 16 30 7 -9 8 -4 4 14 -3 15 -1 30 5 33 6 4 8 12 6 19 -3 7
6 37 20 67 14 30 26 59 28 64 1 6 6 23 10 40 l8 29 21 -27 c12 -16 40 -64 63
-107z"/>
<path d="M581 2937 c-49 -79 -180 -229 -194 -220 -6 3 -7 1 -3 -6 5 -7 -11
-33 -38 -66 -25 -29 -46 -57 -46 -61 0 -15 145 -233 159 -238 11 -5 11 -3 3 7
-12 14 49 298 108 502 16 55 28 101 26 102 -1 1 -8 -8 -15 -20z m-51 -156 c0
-5 -4 -11 -9 -13 -5 -1 -11 -25 -12 -53 -2 -27 -6 -57 -11 -65 -8 -17 -49
-181 -51 -208 -2 -28 -24 -22 -38 10 -6 15 -15 28 -20 28 -5 0 -9 6 -9 13 0 7
-8 22 -17 33 -30 33 -42 60 -33 74 4 7 13 9 20 5 8 -5 11 -4 7 2 -4 6 3 22 16
35 12 14 30 35 40 47 10 12 23 19 29 15 6 -4 8 -3 4 4 -3 6 0 17 8 24 7 8 17
24 20 36 5 15 15 22 32 22 13 0 24 -4 24 -9z"/>
<path d="M485 2750 c3 -5 8 -10 11 -10 2 0 4 5 4 10 0 6 -5 10 -11 10 -5 0 -7
-4 -4 -10z"/>
<path d="M618 2934 c-6 -11 -31 -130 -29 -140 0 -4 17 -8 36 -9 30 -2 35 1 30
16 -4 10 -12 46 -19 80 -7 35 -15 59 -18 53z"/>
<path d="M2040 2806 c0 -2 11 -6 25 -8 13 -3 22 -1 19 3 -5 9 -44 13 -44 5z"/>
<path d="M2278 2803 c6 -2 18 -2 25 0 6 3 1 5 -13 5 -14 0 -19 -2 -12 -5z"/>
<path d="M1903 2793 c9 -2 23 -2 30 0 6 3 -1 5 -18 5 -16 0 -22 -2 -12 -5z"/>
<path d="M571 2733 c-24 -91 -91 -363 -91 -369 0 -3 7 -1 15 6 8 6 20 8 26 4
8 -4 9 -3 5 4 -6 10 36 43 182 148 13 10 13 20 -7 95 -38 144 -41 150 -59 141
-20 -10 -33 -9 -49 1 -8 5 -15 -5 -22 -30z m99 -83 c12 -49 20 -93 18 -98 -4
-12 -115 -102 -126 -102 -4 0 -14 -9 -22 -20 -8 -11 -18 -20 -23 -20 -5 0 -5
6 1 13 6 6 11 30 13 52 1 22 6 45 10 50 4 6 9 26 12 45 3 19 15 65 27 103 19
57 25 67 45 67 20 0 25 -9 45 -90z"/>
<path d="M700 2756 c0 -15 47 -206 51 -210 2 -2 102 -28 222 -58 172 -43 216
-51 212 -38 -2 8 -18 71 -34 140 -17 69 -33 134 -36 145 -6 19 -14 20 -158 19
-84 -1 -176 1 -204 5 -36 5 -53 4 -53 -3z m381 -21 c1 29 49 -130 54 -183 2
-18 8 -39 14 -45 12 -15 -2 -42 -17 -33 -5 3 -28 8 -51 11 -23 3 -58 12 -79
19 -20 8 -80 24 -134 36 -61 13 -98 26 -102 36 -5 14 -36 141 -36 149 0 8 98
10 223 5 81 -3 127 -1 128 5z"/>
<path d="M1918 2763 c7 -3 16 -2 19 1 4 3 -2 6 -13 5 -11 0 -14 -3 -6 -6z"/>
<path d="M1973 2763 c15 -2 39 -2 55 0 15 2 2 4 -28 4 -30 0 -43 -2 -27 -4z"/>
<path d="M1828 2743 c7 -3 16 -2 19 1 4 3 -2 6 -13 5 -11 0 -14 -3 -6 -6z"/>
<path d="M295 2465 c12 -155 46 -531 49 -540 3 -9 16 44 31 127 6 34 5 36 -14
31 -15 -4 -21 -1 -21 12 0 13 6 16 24 11 24 -6 25 -3 46 92 12 53 23 101 24
107 1 5 -22 47 -51 93 -30 46 -51 88 -47 95 4 7 4 9 -1 5 -4 -4 -16 3 -27 15
-19 22 -19 22 -13 -48z m42 -31 c-3 -3 13 -33 35 -66 l41 -59 -23 -95 c-20
-81 -25 -92 -35 -77 -7 10 -16 54 -19 98 -15 185 -16 205 -4 205 6 0 9 -3 5
-6z"/>
<path d="M660 2454 c-41 -31 -95 -70 -120 -86 -25 -17 -36 -28 -25 -26 11 3
66 18 123 33 l104 28 76 -17 c314 -72 382 -91 382 -107 0 -6 -8 -8 -17 -5 -10
2 -45 10 -78 16 -33 6 -112 25 -175 40 -63 16 -131 32 -150 35 -37 6 -280 -45
-281 -59 -1 -15 133 -149 140 -139 3 5 39 33 80 61 l74 52 109 0 c62 0 119 -5
131 -11 12 -7 57 -43 99 -81 74 -66 79 -69 143 -77 51 -6 68 -5 72 5 3 7 -29
74 -71 148 -66 116 -81 136 -109 145 -53 17 -399 101 -416 101 -9 0 -50 -26
-91 -56z m120 26 c0 -5 33 -11 82 -13 14 -1 24 -6 20 -11 -3 -5 2 -7 11 -3 9
3 19 2 22 -4 4 -5 11 -7 16 -3 5 3 16 0 24 -6 8 -7 15 -9 15 -6 0 4 8 2 18 -3
17 -9 37 -14 97 -26 66 -12 83 -19 107 -42 14 -14 29 -37 33 -51 3 -14 15 -38
26 -54 11 -15 18 -28 15 -28 -3 0 2 -8 13 -19 12 -12 17 -27 14 -45 -5 -23
-10 -26 -49 -26 -24 0 -44 4 -44 9 0 5 19 7 42 5 23 -2 39 -1 36 2 -3 3 -22 7
-41 9 -37 3 -116 52 -117 71 0 6 -15 18 -32 28 -18 9 -24 14 -13 10 75 -23
120 -24 133 -4 9 14 8 19 -3 24 -8 3 -15 12 -15 21 0 8 -6 15 -12 15 -38 1
-95 13 -105 22 -7 6 -13 8 -13 4 0 -3 -12 -1 -27 5 -23 9 -94 25 -198 44 -11
2 -39 8 -61 13 -26 6 -48 6 -58 0 -9 -5 -31 -11 -48 -14 l-32 -4 38 39 c22 22
45 37 52 34 8 -3 14 -1 14 4 0 5 9 9 20 9 11 0 20 -3 20 -6z m4 -139 c3 -4 27
-11 53 -15 78 -10 82 -23 8 -25 -66 -1 -90 -8 -117 -33 -24 -23 -108 -79 -109
-74 -1 3 -2 11 -3 16 0 6 -19 26 -40 44 -22 18 -36 37 -33 43 7 10 79 27 107
24 8 0 35 6 60 13 54 18 67 19 74 7z"/>
<path d="M699 2453 c-13 -16 -12 -17 4 -4 9 7 17 15 17 17 0 8 -8 3 -21 -13z"/>
<path d="M446 2218 c-9 -40 -19 -82 -22 -93 -5 -19 -1 -20 72 -18 119 2 123
14 38 107 -38 42 -69 76 -70 76 -1 0 -9 -33 -18 -72z m46 -7 c-1 -7 1 -10 6
-7 5 3 21 -8 36 -23 32 -33 25 -42 -36 -48 l-39 -3 5 47 c2 27 5 50 5 51 1 2
7 2 14 -1 6 -2 11 -10 9 -16z"/>
<path d="M734 2200 c-38 -27 -73 -50 -79 -51 -5 0 8 -9 30 -19 35 -16 68 -19
273 -19 l234 -1 -61 48 c-127 98 -113 92 -226 92 l-102 0 -69 -50z m215 14 c2
-2 13 1 24 7 15 9 18 8 12 -2 -6 -9 -4 -11 8 -6 8 3 25 -2 36 -12 21 -18 29
-37 12 -26 -5 3 -13 0 -16 -6 -5 -6 0 -10 11 -9 11 1 24 1 29 0 6 -1 16 -3 24
-4 21 -2 24 -23 5 -30 -15 -6 -15 -4 -3 11 13 15 12 16 -6 9 -11 -5 -26 -9
-32 -9 -7 0 -13 -5 -13 -10 0 -5 -6 -4 -14 2 -10 8 -61 11 -161 10 -102 -1
-150 2 -158 10 -9 9 -8 11 7 5 13 -5 17 -4 13 3 -8 13 17 25 29 13 5 -4 47 -4
94 0 l85 9 -83 -3 c-47 -2 -85 2 -89 7 -9 15 24 35 51 30 13 -3 27 0 30 6 6 9
93 5 105 -5z m126 -34 c3 -5 1 -10 -4 -10 -6 0 -11 5 -11 10 0 6 2 10 4 10 3
0 8 -4 11 -10z"/>
<path d="M798 2198 c5 -5 16 -8 23 -6 8 3 3 7 -10 11 -17 4 -21 3 -13 -5z"/>
<path d="M950 2170 c20 -13 50 -13 50 0 0 6 -15 10 -32 10 -25 0 -29 -3 -18
-10z"/>
<path d="M188 2168 c-9 -7 -26 -29 -37 -48 -27 -45 -27 -121 -1 -286 17 -107
28 -143 75 -247 31 -67 65 -131 76 -143 20 -21 104 -52 115 -42 3 3 -17 100
-45 215 -32 138 -55 265 -67 372 -16 147 -20 164 -38 171 -50 18 -63 19 -78 8z
m47 -28 c4 -6 11 -7 17 -4 6 4 9 1 6 -6 -6 -18 -39 -22 -57 -7 -12 10 -13 9
-6 -2 5 -10 4 -12 -4 -7 -9 6 -9 11 0 22 13 16 35 18 44 4z m7 -40 c33 0 38
-2 29 -14 -8 -10 -9 -21 -2 -37 6 -13 14 -69 20 -124 5 -55 12 -111 15 -124 3
-13 19 -79 36 -146 16 -68 30 -136 30 -152 0 -16 5 -34 11 -40 20 -20 -24 -35
-50 -17 -21 15 -121 212 -121 239 0 7 -4 15 -9 17 -12 4 -44 215 -45 301 l-1
68 42 -2 c23 -2 45 0 49 4 4 4 -14 7 -39 7 -44 0 -56 7 -40 24 4 3 13 4 21 1
7 -3 32 -5 54 -5z m153 -670 c-3 -5 -12 -10 -18 -10 -7 0 -6 4 3 10 19 12 23
12 15 0z"/>
<path d="M215 2130 c-3 -5 -1 -10 4 -10 6 0 11 5 11 10 0 6 -2 10 -4 10 -3 0
-8 -4 -11 -10z"/>
<path d="M615 2120 c-3 -5 0 -10 9 -10 8 0 23 -3 33 -7 16 -6 16 -5 4 10 -15
19 -37 22 -46 7z"/>
<path d="M414 2075 c-15 -48 -50 -205 -44 -203 5 2 111 122 168 190 12 15 8
17 -54 20 -38 2 -68 -1 -70 -7z m55 -26 c1 8 4 11 8 7 13 -13 11 -35 -5 -48
-13 -11 -15 -11 -8 2 9 17 -32 -28 -52 -57 -7 -10 -11 -13 -8 -7 3 6 7 24 10
40 3 16 10 30 16 32 5 2 8 8 5 13 -4 5 0 15 7 23 11 12 14 12 20 -3 5 -12 7
-12 7 -2z"/>
<path d="M800 2081 c0 -23 75 -34 155 -22 91 13 175 14 135 1 -69 -22 -185
-42 -223 -38 -23 3 -68 17 -99 32 -73 34 -171 37 -188 7 -11 -22 -7 -36 134
-481 l78 -245 82 -88 81 -88 109 158 c98 141 112 168 134 246 l25 89 -56 175
c-31 97 -58 178 -60 180 -2 2 -31 -14 -63 -35 -127 -83 -164 -99 -164 -71 0 5
48 36 106 70 59 34 118 73 132 86 l25 23 -156 0 c-85 0 -162 3 -171 6 -9 3
-16 1 -16 -5z m-87 -26 c20 -3 37 -10 37 -16 0 -6 -5 -7 -11 -4 -9 6 -73 17
-106 18 -7 0 -13 4 -13 8 0 5 12 7 28 4 15 -2 44 -7 65 -10z m-23 -26 c0 -5
26 -9 58 -9 31 0 70 -7 86 -15 34 -18 50 -18 99 -1 20 8 37 10 37 5 0 -5 -7
-9 -16 -9 -8 0 -12 -5 -9 -11 7 -11 -33 -46 -47 -41 -4 1 -15 -9 -24 -22 -12
-19 -13 -29 -4 -45 13 -24 45 -28 54 -6 3 8 13 15 23 15 10 0 27 7 37 15 10 8
22 12 26 10 5 -3 10 1 13 9 6 15 77 59 78 48 2 -24 10 -51 22 -82 8 -19 20
-55 27 -80 7 -25 19 -64 28 -87 14 -41 14 -67 -4 -175 -3 -21 -10 -38 -14 -38
-7 0 -13 -15 -20 -48 -1 -4 -8 -11 -16 -15 -8 -4 -14 -13 -14 -19 0 -5 -13
-27 -30 -48 -16 -21 -30 -43 -30 -49 0 -6 -4 -11 -10 -11 -5 0 -10 -5 -10 -11
0 -6 -10 -20 -22 -31 -13 -11 -16 -16 -8 -12 8 4 5 -4 -8 -18 -12 -13 -19 -28
-15 -33 5 -4 3 -5 -4 -2 -6 4 -13 2 -15 -4 -2 -6 -23 8 -46 30 -23 23 -40 41
-38 41 3 0 -9 15 -25 33 -34 37 -53 73 -69 136 -6 24 -15 51 -20 60 -4 9 -20
59 -35 111 -14 52 -30 104 -34 115 -27 66 -64 183 -64 203 1 12 -2 22 -6 22
-3 0 -7 17 -9 38 -2 37 -2 37 38 38 22 1 40 -2 40 -7z m303 -24 c-3 -9 -8 -14
-10 -11 -3 3 -2 9 2 15 9 16 15 13 8 -4z"/>
<path d="M515 1992 c-11 -15 -50 -62 -87 -104 l-68 -77 56 -60 c34 -37 53 -65
48 -72 -4 -7 -3 -9 4 -5 13 8 223 -224 215 -238 -3 -6 -2 -8 2 -3 5 4 22 -5
38 -20 25 -23 29 -24 22 -8 -4 11 -50 154 -103 318 -53 163 -98 297 -101 297
-3 0 -15 -13 -26 -28z m38 -71 c10 -21 24 -63 32 -93 7 -29 19 -66 26 -83 7
-16 14 -41 16 -54 2 -14 8 -32 14 -42 5 -10 9 -26 9 -37 0 -10 11 -40 25 -66
14 -26 21 -44 15 -41 -14 9 -12 -8 3 -25 6 -8 2 -6 -10 4 -13 11 -23 29 -23
40 0 14 -3 17 -8 9 -6 -9 -12 -7 -22 8 -8 12 -30 37 -49 58 -18 20 -42 50 -52
66 -10 17 -19 26 -19 22 0 -10 -80 75 -80 86 0 5 -6 5 -12 1 -7 -4 -10 -4 -6
1 4 4 3 14 -2 21 -14 16 36 97 79 128 17 13 28 26 24 29 -3 4 0 7 8 7 9 0 23
-18 32 -39z"/>
<path d="M372 1738 c3 -7 27 -101 53 -208 47 -191 49 -196 84 -221 137 -98
280 -205 303 -225 15 -13 30 -24 32 -24 9 0 -76 257 -91 277 -48 59 -369 411
-377 412 -4 1 -6 -5 -4 -11z m153 -184 c55 -59 115 -122 134 -140 18 -19 30
-34 27 -34 -4 0 8 -15 27 -32 24 -24 40 -56 59 -118 14 -47 24 -88 21 -93 -2
-4 -22 6 -44 24 -21 17 -39 28 -39 25 0 -3 -8 2 -18 12 -30 28 -69 59 -96 77
-14 10 -23 22 -19 28 3 5 2 7 -4 4 -5 -3 -27 5 -49 18 -21 14 -36 25 -31 25 4
0 1 14 -8 30 -9 17 -14 30 -11 30 2 0 0 16 -6 36 -15 57 -19 75 -31 139 -5 33
-15 63 -21 67 -7 5 -7 8 -1 8 6 0 55 -48 110 -106z"/>
<path d="M1166 1418 c-15 -23 -64 -94 -108 -159 l-81 -117 48 -61 c26 -34 51
-61 54 -61 3 0 66 30 141 68 74 37 136 67 137 68 4 0 34 207 31 209 -2 1 -20
14 -40 29 -32 24 -41 26 -72 17 -33 -9 -38 -7 -58 19 l-23 28 -29 -40z m113
-36 c73 3 84 -10 76 -96 -9 -97 -10 -100 -56 -131 -23 -15 -38 -21 -33 -13 6
10 5 11 -7 1 -8 -6 -50 -30 -93 -53 l-79 -41 -43 43 c-40 40 -58 68 -34 53 6
-3 10 -1 10 4 0 6 1 14 1 19 1 6 35 49 74 95 9 10 13 22 10 27 -4 6 1 13 9 16
9 3 16 11 16 18 0 6 9 19 20 29 11 9 20 23 20 31 0 8 8 19 17 25 13 7 21 4 31
-10 10 -15 24 -18 61 -17z"/>
<path d="M1402 1253 c-12 -91 -11 -99 5 -111 31 -22 64 -25 97 -9 l32 15 -15
101 -14 101 -47 0 -46 0 -12 -97z m88 47 c0 -9 3 -44 6 -77 6 -55 5 -62 -15
-72 -16 -9 -26 -9 -42 0 -20 10 -21 16 -15 86 3 41 8 78 11 83 9 14 55 -2 55
-20z"/>
<path d="M483 1285 c8 -16 31 -93 51 -170 39 -151 54 -179 177 -331 61 -74
279 -288 314 -307 17 -8 18 -8 9 4 -7 8 -23 55 -38 104 -14 50 -50 166 -79
260 l-53 169 -171 126 c-95 69 -184 136 -199 150 l-27 25 16 -30z m77 -71 c0
4 6 1 14 -6 8 -7 12 -16 9 -20 -2 -5 3 -8 11 -8 9 0 16 -5 16 -11 0 -5 4 -8 8
-5 5 3 18 -3 29 -14 12 -10 24 -16 28 -12 4 4 5 2 3 -5 -3 -11 37 -45 96 -80
64 -39 73 -55 116 -198 23 -77 46 -144 51 -149 5 -6 9 -25 9 -42 0 -18 5 -36
10 -39 6 -3 10 -16 10 -29 0 -12 5 -27 12 -34 9 -9 8 -12 -6 -12 -9 0 -14 5
-11 10 3 6 1 10 -4 10 -16 0 -261 249 -261 265 0 7 -10 19 -57 72 -18 19 -30
39 -28 44 3 4 -1 11 -8 16 -8 4 -26 58 -41 118 -38 152 -37 148 -20 134 8 -6
14 -8 14 -5z"/>
<path d="M813 1258 c3 -7 20 -57 37 -110 18 -54 35 -96 39 -93 4 2 16 22 26
44 l18 41 -57 65 c-57 64 -73 78 -63 53z m76 -142 c-9 -8 -10 -8 -5 2 4 6 2
12 -5 12 -8 0 -7 5 2 17 13 15 14 15 17 -2 2 -9 -2 -22 -9 -29z"/>
<path d="M938 1088 c-41 -63 -41 -63 19 -65 30 -1 65 -4 77 -7 17 -4 11 6 -26
44 -27 28 -50 50 -52 50 -2 0 -10 -10 -18 -22z m30 -33 c-2 -5 -8 -10 -15 -11
-6 -1 -9 4 -6 12 6 16 27 15 21 -1z"/>
<path d="M904 983 c104 -337 149 -482 155 -497 6 -17 13 -11 46 40 21 32 73
104 115 159 42 55 79 105 83 112 4 7 -11 21 -38 38 -25 14 -43 30 -40 35 3 6
0 8 -7 5 -7 -3 -42 21 -77 52 -66 59 -97 70 -204 72 -32 1 -37 -2 -33 -16z
m138 -23 c14 0 33 -6 40 -12 80 -75 110 -98 121 -92 6 4 9 4 5 -1 -8 -8 33
-45 51 -45 6 0 11 -5 11 -11 0 -10 -45 -74 -66 -94 -6 -5 -18 -23 -28 -39 -14
-23 -20 -26 -28 -15 -8 12 -9 11 -5 -1 5 -17 -23 -70 -36 -70 -5 0 -6 -7 -3
-16 3 -8 2 -13 -3 -10 -5 3 -12 -4 -15 -17 -6 -21 -7 -21 -17 -4 -6 10 -12 28
-14 40 -1 12 -9 40 -17 62 -8 22 -23 67 -33 100 -10 33 -26 84 -36 113 -11 29
-19 62 -19 73 0 13 -4 18 -12 13 -6 -4 -9 -3 -6 2 3 5 8 17 11 26 5 14 12 15
39 7 18 -5 45 -9 60 -9z"/>
<path d="M1040 456 c0 -2 8 -10 18 -17 15 -13 16 -12 3 4 -13 16 -21 21 -21
13z"/>
<path d="M2568 1973 c7 -3 16 -2 19 1 4 3 -2 6 -13 5 -11 0 -14 -3 -6 -6z"/>
<path d="M2652 1960 c0 -14 2 -19 5 -12 2 6 2 18 0 25 -3 6 -5 1 -5 -13z"/>
<path d="M2415 1911 c-3 -5 -2 -12 3 -15 5 -3 9 1 9 9 0 17 -3 19 -12 6z"/>
<path d="M2845 1200 c3 -5 8 -10 11 -10 2 0 4 5 4 10 0 6 -5 10 -11 10 -5 0
-7 -4 -4 -10z"/>
<path d="M3368 943 c7 -3 16 -2 19 1 4 3 -2 6 -13 5 -11 0 -14 -3 -6 -6z"/>
<path d="M3440 2862 c-177 -3 -190 -7 -190 -60 0 -20 7 -32 23 -39 13 -6 128
-10 289 -9 l268 1 0 -121 c0 -243 12 -455 27 -470 20 -20 66 -18 79 4 17 28
19 653 2 674 -11 14 -37 17 -175 20 -89 2 -234 2 -323 0z m480 -355 l0 -333
-27 2 c-16 0 -29 7 -29 15 -1 8 -2 143 -3 302 l-1 287 -295 0 -295 0 0 23 c0
13 3 27 7 30 3 4 150 7 325 7 l318 0 0 -333z"/>
<path d="M3880 2789 c0 -5 5 -7 10 -4 6 3 10 8 10 11 0 2 -4 4 -10 4 -5 0 -10
-5 -10 -11z"/>
<path d="M3891 2414 c0 -11 3 -14 6 -6 3 7 2 16 -1 19 -3 4 -6 -2 -5 -13z"/>
<path d="M1180 2841 c0 -6 4 -13 10 -16 6 -3 7 1 4 9 -7 18 -14 21 -14 7z"/>
<path d="M1338 2843 c7 -3 16 -2 19 1 4 3 -2 6 -13 5 -11 0 -14 -3 -6 -6z"/>
<path d="M1622 2843 c-6 -2 -10 -9 -6 -14 8 -14 21 -11 21 6 0 8 -1 15 -1 14
-1 0 -7 -3 -14 -6z"/>
<path d="M1680 2830 c0 -6 7 -10 15 -10 8 0 15 2 15 4 0 2 -7 6 -15 10 -8 3
-15 1 -15 -4z"/>
<path d="M1238 2823 c7 -3 16 -2 19 1 4 3 -2 6 -13 5 -11 0 -14 -3 -6 -6z"/>
<path d="M1530 2710 c20 -13 47 -13 55 0 4 6 -9 10 -32 10 -28 0 -34 -3 -23
-10z"/>
<path d="M1293 2703 c9 -2 23 -2 30 0 6 3 -1 5 -18 5 -16 0 -22 -2 -12 -5z"/>
<path d="M1568 2683 c6 -2 18 -2 25 0 6 3 1 5 -13 5 -14 0 -19 -2 -12 -5z"/>
<path d="M1971 2673 c-14 -10 -16 -44 -14 -288 2 -191 6 -282 14 -291 18 -22
561 -20 579 1 9 11 13 87 15 291 l3 275 -23 15 c-18 12 -68 14 -290 12 -185
-2 -273 -7 -284 -15z m574 -288 l0 -275 -282 0 -283 0 0 275 0 275 283 0 282
0 0 -275z"/>
<path d="M2487 2611 c-5 -19 15 -23 30 -6 5 4 2 5 -6 0 -11 -6 -13 -4 -8 8 3
10 3 17 -2 17 -5 0 -11 -9 -14 -19z"/>
<path d="M2058 2548 c-3 -24 -6 -116 -7 -205 l-2 -163 210 0 211 0 0 205 0
205 -204 0 -204 0 -4 -42z m382 -7 c3 -236 1 -324 -8 -330 -10 -6 -341 -5
-348 1 -3 3 -6 167 -5 285 l1 63 163 2 c184 3 197 2 197 -21z"/>
<path d="M2136 2514 c-18 -13 -20 -25 -17 -126 1 -61 6 -119 12 -130 9 -16 23
-18 129 -18 108 0 120 2 130 19 15 30 13 246 -3 259 -20 17 -228 14 -251 -4z
m244 -129 l0 -115 -120 0 -120 0 0 115 0 115 120 0 120 0 0 -115z"/>
<path d="M2330 2451 c0 -6 4 -13 10 -16 6 -3 7 1 4 9 -7 18 -14 21 -14 7z"/>
<path d="M2998 2673 c-22 -27 -25 -165 -3 -183 18 -15 65 -16 93 -1 17 9 20
21 20 88 0 90 -13 113 -63 113 -18 0 -38 -8 -47 -17z m86 -90 l-1 -78 -37 0
-38 0 -1 78 -2 77 40 0 40 0 -1 -77z"/>
<path d="M3177 2673 c-13 -15 -15 -59 -17 -289 -1 -238 1 -274 15 -288 14 -14
52 -16 294 -16 234 0 281 2 291 15 17 21 17 559 0 580 -10 13 -57 15 -290 15
-251 0 -278 -2 -293 -17z m573 -288 l0 -275 -282 0 -283 0 0 275 0 275 283 0
282 0 0 -275z"/>
<path d="M3260 2385 l0 -205 205 0 205 0 0 205 0 205 -205 0 -205 0 0 -205z
m384 5 c-1 -94 -4 -173 -7 -177 -7 -6 -336 -5 -347 2 -6 4 -7 307 -1 338 0 4
81 7 179 7 l177 0 -1 -170z"/>
<path d="M3347 2522 c-9 -2 -15 -8 -12 -13 4 -5 63 -9 132 -9 l125 0 -7 -105
c-5 -68 -4 -109 3 -118 8 -9 -15 -11 -113 -9 l-124 3 -3 111 c-4 154 -24 157
-27 4 -2 -144 -2 -144 143 -144 151 -1 146 -5 146 133 0 64 -5 125 -10 135 -9
17 -22 19 -123 18 -61 -1 -120 -3 -130 -6z"/>
<path d="M3523 2445 c0 -7 6 -11 14 -8 7 3 13 6 13 8 0 2 -6 5 -13 8 -8 3 -14
-1 -14 -8z"/>
<path d="M3372 2310 c0 -14 2 -19 5 -12 2 6 2 18 0 25 -3 6 -5 1 -5 -13z"/>
<path d="M2797 2673 c-4 -3 -7 -25 -7 -48 0 -45 19 -71 45 -61 8 3 25 2 38 -3
31 -12 51 12 49 61 -1 22 -4 44 -8 49 -6 10 -107 12 -117 2z m103 -51 l0 -38
-42 1 c-42 1 -43 2 -46 38 l-3 37 45 0 46 0 0 -38z"/>
<path d="M2622 2588 c-16 -16 -15 -83 1 -96 15 -13 88 -19 105 -8 16 9 16 88
0 104 -7 7 -30 12 -53 12 -23 0 -46 -5 -53 -12z m98 -48 l0 -40 -44 0 -45 0 1
40 0 40 44 0 44 0 0 -40z"/>
<path d="M3580 2028 c-21 -23 -28 -88 -9 -88 5 0 7 -4 4 -10 -3 -5 1 -10 10
-10 9 0 14 -4 11 -8 -3 -5 8 -7 23 -4 l29 4 -5 -56 c-3 -33 0 -62 6 -70 6 -7
7 -16 3 -20 -4 -4 -2 -7 3 -6 6 1 12 1 15 0 18 -8 77 -4 88 6 7 8 12 41 12 89
0 84 -11 105 -54 105 -22 0 -26 4 -26 30 0 17 -5 30 -11 30 -6 0 -9 -17 -7
-42 3 -43 3 -43 41 -42 l37 1 0 -78 0 -79 -40 0 -40 0 0 80 0 80 -40 0 -40 0
0 40 c0 40 0 40 39 40 45 0 62 15 28 24 -38 10 -56 7 -77 -16z"/>
<path d="M3401 1913 c-1 -7 8 -17 19 -23 16 -9 18 -8 14 5 -3 8 -10 13 -14 10
-5 -3 -11 1 -13 7 -4 10 -6 10 -6 1z"/>
<path d="M3037 1843 c3 -7 6 -13 8 -13 2 0 5 6 8 13 3 8 -1 14 -8 14 -7 0 -11
-6 -8 -14z"/>
<path d="M3090 1820 l0 -40 -45 0 -45 0 0 -40 0 -40 130 0 130 0 0 40 0 40
-40 0 -40 0 0 40 0 40 -45 0 -45 0 0 -40z m61 -3 c-15 -15 26 -66 50 -60 11 3
19 0 19 -6 0 -7 5 -9 10 -6 6 3 10 1 10 -4 0 -13 6 -13 -112 -15 -78 -1 -98 1
-98 12 0 10 8 13 25 10 13 -3 22 -1 19 3 -3 5 1 9 8 9 17 0 41 38 32 52 -8 13
15 28 33 21 10 -4 11 -9 4 -16z"/>
<path d="M3005 1829 c-4 -6 -5 -12 -2 -15 2 -3 7 2 10 11 7 17 1 20 -8 4z"/>
<path d="M3208 1813 c7 -3 16 -2 19 1 4 3 -2 6 -13 5 -11 0 -14 -3 -6 -6z"/>
<path d="M3903 1727 c0 -8 6 -14 14 -14 9 0 10 4 2 14 -6 7 -12 13 -14 13 -1
0 -2 -6 -2 -13z"/>
<path d="M2255 1710 c-3 -6 1 -7 9 -4 18 7 21 14 7 14 -6 0 -13 -4 -16 -10z"/>
<path d="M3933 1674 c0 -17 2 -22 7 -13 5 6 6 18 3 26 -8 19 -10 16 -10 -13z"/>
<path d="M3987 1679 c7 -7 15 -10 18 -7 3 3 -2 9 -12 12 -14 6 -15 5 -6 -5z"/>
<path d="M2168 1663 c7 -3 16 -2 19 1 4 3 -2 6 -13 5 -11 0 -14 -3 -6 -6z"/>
<path d="M3218 1643 c7 -3 16 -2 19 1 4 3 -2 6 -13 5 -11 0 -14 -3 -6 -6z"/>
<path d="M2790 1529 c0 -5 5 -7 10 -4 6 3 10 8 10 11 0 2 -4 4 -10 4 -5 0 -10
-5 -10 -11z"/>
<path d="M3090 1488 c-1 -2 -2 -58 -3 -126 l-2 -122 133 0 134 0 -5 123 -5
122 -126 3 c-69 1 -126 1 -126 0z m127 -32 c9 -4 11 -1 7 6 -5 8 -2 9 10 5 10
-4 33 -7 52 -7 l34 0 0 -94 c0 -76 -3 -95 -16 -100 -9 -3 -57 -6 -108 -6 l-92
0 4 93 c1 50 4 97 6 102 4 11 76 11 103 1z"/>
<path d="M3166 1403 c-9 -29 -4 -87 8 -98 15 -14 78 -15 91 -1 15 16 19 85 5
102 -18 21 -97 19 -104 -3z m94 -43 l0 -40 -40 0 -40 0 0 40 0 40 40 0 40 0 0
-40z"/>
<path d="M1977 1414 c-3 -4 -5 -10 -2 -14 2 -4 131 -5 287 -4 l283 3 0 -276
c0 -186 3 -277 11 -280 11 -4 10 554 -2 566 -8 8 -568 13 -577 5z"/>
<path d="M1958 1228 c-4 -297 1 -392 18 -405 17 -13 536 -19 567 -7 48 18 -21
24 -279 24 l-284 0 0 275 c0 177 -4 275 -10 275 -6 0 -11 -62 -12 -162z"/>
<path d="M3862 1341 c-21 -16 -22 -23 -24 -301 l-3 -285 -265 -2 c-146 -2
-270 -3 -277 -3 -39 -1 -56 -65 -25 -93 16 -15 55 -17 334 -17 281 0 317 2
329 17 20 23 25 658 6 677 -21 21 -53 24 -75 7z m58 -341 l0 -330 -326 0 -325
0 3 28 3 27 292 0 291 0 4 105 c3 58 4 194 4 303 l-1 197 28 0 27 0 0 -330z"/>
<path d="M3892 950 c0 -19 2 -27 5 -17 2 9 2 25 0 35 -3 9 -5 1 -5 -18z"/>
<path d="M3891 894 c0 -11 3 -14 6 -6 3 7 2 16 -1 19 -3 4 -6 -2 -5 -13z"/>
<path d="M3891 784 c0 -11 3 -14 6 -6 3 7 2 16 -1 19 -3 4 -6 -2 -5 -13z"/>
<path d="M3880 716 c0 -9 5 -16 10 -16 6 0 10 4 10 9 0 6 -4 13 -10 16 -5 3
-10 -1 -10 -9z"/>
<path d="M3855 700 c-3 -5 -1 -10 4 -10 6 0 11 5 11 10 0 6 -2 10 -4 10 -3 0
-8 -4 -11 -10z"/>
<path d="M1799 1340 c-14 -8 -16 -48 -17 -337 -1 -281 1 -330 14 -345 14 -15
48 -17 332 -17 175 -1 323 3 331 8 20 13 23 67 5 86 -13 13 -57 15 -299 15
l-285 0 3 290 c2 181 -1 294 -7 300 -12 12 -56 12 -77 0z m61 -310 l0 -300
263 -1 c354 -2 330 1 334 -32 l4 -27 -328 0 -328 0 3 330 3 330 24 0 25 0 0
-300z"/>
<path d="M2050 1115 l0 -205 208 2 207 3 3 203 2 202 -210 0 -210 0 0 -205z
m253 185 l137 2 0 -170 c0 -94 2 -176 3 -184 2 -7 2 -10 0 -5 -3 4 -9 4 -14 1
-10 -6 -340 -6 -346 0 -3 2 -6 318 -4 343 1 14 27 20 61 15 14 -2 87 -3 163
-2z"/>
<path d="M2240 1260 l-115 -5 -3 -124 c-4 -164 -6 -161 143 -161 139 0 137 -3
133 159 -4 141 0 138 -158 131z m140 -140 l0 -120 -120 0 -120 0 0 120 0 120
120 0 120 0 0 -120z"/>
<path d="M2330 1060 c-9 -6 -10 -10 -3 -10 6 0 15 5 18 10 8 12 4 12 -15 0z"/>
<path d="M3030 1281 c0 -10 19 -25 25 -20 1 2 -3 10 -11 17 -8 7 -14 8 -14 3z"/>
<path d="M3190 1206 c0 -3 9 -10 19 -16 15 -7 22 -7 27 2 4 7 4 10 -1 6 -4 -4
-16 -3 -26 3 -11 5 -19 7 -19 5z"/>
<path d="M3439 1208 c-7 -23 -4 -35 7 -35 8 0 14 4 14 9 0 4 -5 8 -11 8 -5 0
-7 5 -4 10 3 6 4 10 1 10 -3 0 -6 -1 -7 -2z"/>
<path d="M2627 1002 c-23 -26 -16 -160 9 -179 21 -16 58 -17 85 -3 16 9 19 22
19 93 0 51 -5 88 -12 95 -19 19 -82 15 -101 -6z m93 -87 l0 -73 -42 -3 -43 -4
2 80 c1 44 2 80 3 80 0 0 18 -1 40 -3 l40 -4 0 -73z"/>
<path d="M3651 911 c-10 -23 -9 -35 3 -65 14 -33 19 -36 53 -36 50 0 63 14 63
65 0 52 -13 65 -66 65 -36 0 -43 -4 -53 -29z m99 -31 l0 -40 -40 0 -40 0 0 40
0 40 40 0 40 0 0 -40z"/>
</g>
</svg>
